<?xml version="1.0" standalone="no"?>
<!DOCTYPE svg PUBLIC "-//W3C//DTD SVG 20010904//EN"
 "http://www.w3.org/TR/2001/REC-SVG-20010904/DTD/svg10.dtd">
<svg version="1.0" xmlns="http://www.w3.org/2000/svg"
 width="750.000000pt" height="750.000000pt" viewBox="0 0 750.000000 750.000000"
 preserveAspectRatio="xMidYMid meet">
<metadata>
Created by potrace 1.11, written by Peter Selinger 2001-2013
</metadata>
<g transform="translate(0.000000,750.000000) scale(0.100000,-0.100000)"
fill="#000000" stroke="none">
<path d="M1613 7178 c-146 -188 -212 -287 -268 -397 -77 -156 -122 -316 -146
-520 -15 -136 -6 -550 16 -731 17 -140 86 -562 108 -656 l12 -54 175 59 c612
205 1126 507 1500 882 63 64 128 134 143 157 l29 40 -62 121 c-69 136 -223
372 -326 501 -130 162 -372 385 -545 500 -147 99 -355 202 -496 244 -18 6 -37
-14 -140 -146z m241 86 c120 -48 274 -129 385 -204 336 -225 665 -609 867
-1012 l45 -90 -37 -46 c-66 -82 -238 -247 -361 -345 -351 -279 -751 -493
-1225 -655 l-175 -60 -26 131 c-89 451 -123 774 -114 1085 10 368 76 604 239
854 71 109 282 378 297 378 7 0 55 -16 105 -36z"/>
<path d="M1628 7143 c-193 -249 -263 -368 -323 -546 -42 -128 -61 -219 -76
-372 -14 -146 -6 -474 16 -660 30 -248 103 -676 118 -691 15 -16 449 148 662
250 136 66 357 190 460 259 221 148 493 382 616 528 l40 48 -36 71 c-230 456
-591 858 -980 1091 -84 50 -302 150 -358 164 -22 6 -35 -7 -139 -142z"/>
<path d="M5795 7257 c-358 -156 -693 -407 -1015 -762 -120 -132 -294 -367
-344 -463 l-17 -33 43 -57 c271 -360 775 -736 1308 -978 116 -52 422 -174 439
-174 17 0 134 553 170 805 34 233 46 471 32 636 -14 173 -31 261 -77 399 -48
143 -114 265 -257 471 -131 190 -146 209 -156 209 -3 -1 -60 -24 -126 -53z
m245 -142 c179 -257 241 -373 294 -557 76 -263 76 -652 1 -1102 -36 -213 -130
-636 -142 -636 -2 0 -80 30 -171 66 -464 184 -849 411 -1183 701 -117 101
-270 258 -338 349 -58 77 -62 58 39 209 274 409 655 765 1060 991 99 55 293
143 315 144 6 0 62 -74 125 -165z"/>
<path d="M5830 7237 c-185 -81 -392 -202 -555 -325 -266 -202 -546 -501 -738
-791 l-76 -114 30 -41 c304 -416 941 -851 1611 -1101 l87 -33 40 167 c105 436
151 762 151 1071 0 349 -54 571 -195 805 -69 115 -263 395 -273 395 -4 0 -41
-15 -82 -33z"/>
<path d="M2825 3740 c-21 -24 -82 -44 -198 -66 -85 -17 -88 -18 -63 -31 17 -9
32 -11 44 -5 9 5 51 17 92 27 41 9 91 26 111 36 l37 18 111 -198 c179 -320
239 -461 277 -658 19 -96 26 -397 11 -508 -10 -79 6 -51 24 40 17 93 15 317
-5 435 -35 210 -96 366 -248 636 -53 93 -110 197 -127 232 -17 34 -35 62 -40
62 -4 0 -16 -9 -26 -20z"/>
<path d="M2808 3689 c-21 -11 -74 -28 -119 -39 -45 -10 -82 -20 -83 -22 0 -2
-22 -47 -48 -100 l-48 -98 -42 0 c-113 1 -546 30 -568 38 -14 5 -76 35 -139
66 l-114 57 -89 -3 -88 -3 24 -26 c14 -15 23 -34 22 -44 -2 -17 -23 -35 -41
-34 -5 0 1 6 15 14 68 39 -15 6 -179 -70 -101 -47 -190 -85 -198 -85 -8 0 -11
-5 -7 -12 4 -7 -49 42 -118 110 l-124 123 -124 10 c-123 10 -123 10 -179 -17
-31 -15 -81 -53 -112 -83 -93 -94 -129 -193 -129 -361 0 -528 525 -1165 1208
-1465 220 -97 530 -181 740 -201 l73 -7 207 205 c114 112 279 264 367 338 88
74 193 166 233 204 39 38 72 64 72 59 0 -11 -129 -128 -290 -263 -170 -143
-368 -328 -484 -453 -89 -95 -99 -103 -129 -100 -333 39 -599 115 -872 248
-366 179 -647 412 -873 723 -68 94 -179 309 -212 410 -53 162 -67 347 -35 466
34 126 118 232 231 287 l63 31 122 -10 122 -10 121 -119 121 -118 -125 130
-125 130 -120 10 -120 11 -68 -33 c-208 -100 -302 -330 -252 -614 21 -123 48
-198 125 -354 296 -595 958 -1056 1700 -1184 63 -11 141 -23 173 -27 l59 -6
216 214 c119 118 289 275 377 349 88 74 189 161 224 195 l65 61 5 109 c12 233
5 453 -17 556 -42 195 -99 330 -251 597 -49 86 -97 172 -107 193 l-19 36 -37
-19z m-1088 -149 c19 -11 31 -19 25 -19 -5 0 -21 6 -35 14 -16 9 -54 14 -102
15 -70 0 -77 -2 -71 -17 7 -19 5 -18 -16 10 -13 16 -8 17 75 17 68 -1 97 -5
124 -20z m152 -70 c34 -16 56 -30 48 -30 -15 1 -131 59 -118 60 3 0 35 -13 70
-30z m-472 -25 c-25 -13 -49 -24 -55 -24 -5 0 10 11 35 24 25 13 50 24 55 24
6 0 -10 -11 -35 -24z m693 -12 c-24 -2 -62 -2 -85 0 -24 2 -5 4 42 4 47 0 66
-2 43 -4z m190 -10 c-23 -2 -64 -2 -90 0 -26 2 -7 3 42 3 50 0 71 -1 48 -3z
m190 -10 c-24 -2 -62 -2 -85 0 -24 2 -5 4 42 4 47 0 66 -2 43 -4z m-1203 -28
c-25 -13 -49 -24 -55 -24 -5 0 10 11 35 24 25 13 50 24 55 24 6 0 -10 -11 -35
-24z m-110 -50 c-14 -8 -29 -14 -35 -14 -5 0 1 6 15 14 14 8 30 14 35 14 6 0
-1 -6 -15 -14z m1373 -102 c-13 -2 -35 -2 -50 0 -16 2 -5 4 22 4 28 0 40 -2
28 -4z m61 -14 c-6 -10 45 -21 58 -13 7 5 8 2 3 -6 -6 -10 -4 -12 9 -7 9 4 15
3 12 -1 -3 -4 4 -14 16 -21 11 -7 17 -8 13 -2 -11 19 1 12 26 -16 13 -14 18
-23 11 -19 -11 7 -11 4 -1 -12 7 -12 15 -19 19 -17 3 2 5 -19 5 -45 0 -26 -3
-46 -6 -44 -4 2 -10 -3 -13 -12 -3 -8 -2 -12 4 -9 18 11 10 0 -22 -30 -18 -17
-28 -24 -24 -17 7 11 4 11 -12 1 -12 -7 -19 -17 -16 -21 3 -4 -3 -5 -12 -1
-12 4 -15 3 -10 -5 5 -8 2 -10 -8 -6 -9 3 -16 2 -16 -4 0 -6 -10 -8 -22 -4
-11 3 -19 1 -16 -4 4 -5 -34 -9 -87 -9 -51 0 -91 4 -88 9 3 4 -4 5 -16 1 -13
-4 -21 -2 -21 5 0 6 -4 8 -10 5 -5 -3 -10 -1 -10 5 0 6 -4 8 -10 5 -5 -3 -10
-1 -10 6 0 7 -3 9 -7 6 -3 -4 -25 12 -48 36 -39 39 -42 45 -39 91 1 27 7 52
12 55 4 3 12 14 15 24 4 11 16 21 27 24 11 3 20 9 20 14 0 5 3 8 8 7 12 -3 52
13 52 22 0 4 10 6 22 2 11 -3 19 -1 16 4 -4 5 34 9 87 9 51 0 91 -3 89 -6z
m183 -171 c-3 -7 -5 -2 -5 12 0 14 2 19 5 13 2 -7 2 -19 0 -25z m-254 -165
c-7 -2 -21 -2 -30 0 -10 3 -4 5 12 5 17 0 24 -2 18 -5z"/>
<path d="M6781 3536 c-108 -122 -62 -109 -442 -127 l-246 -12 -69 28 c-38 15
-75 30 -83 33 -10 4 -12 1 -6 -9 4 -8 -19 12 -51 43 l-59 57 -145 -14 c-446
-44 -849 -44 -978 -2 l-37 12 -63 -155 c-151 -369 -184 -495 -186 -702 -1 -82
-4 -118 -9 -100 -11 37 0 230 19 321 24 113 58 217 141 421 42 102 79 195 84
207 7 20 9 21 50 7 111 -39 557 -38 974 1 l150 14 55 -52 54 -52 -54 60 c-29
33 -55 61 -56 63 -1 2 -87 -5 -191 -14 -138 -14 -277 -18 -528 -18 -372 -1
-417 5 -442 54 -7 14 -13 19 -13 11 0 -7 -45 -126 -101 -265 -55 -138 -111
-292 -124 -343 -49 -187 -56 -361 -20 -462 17 -47 20 -98 11 -166 -4 -26 2
-71 17 -125 26 -100 13 -89 327 -297 209 -139 353 -243 518 -376 l93 -75 62
14 c294 66 627 224 887 420 315 238 582 593 683 909 55 172 61 204 62 355 0
127 -3 154 -23 213 -28 79 -87 172 -131 205 -16 12 -32 22 -34 22 -3 0 -46
-47 -96 -104z m143 34 c172 -184 165 -528 -19 -905 -217 -445 -646 -828 -1150
-1025 -107 -41 -333 -110 -364 -110 -10 0 -80 50 -157 110 -157 125 -316 239
-491 351 -65 43 -153 102 -195 133 l-76 56 -21 89 c-12 49 -20 99 -20 112 1
20 2 21 6 4 2 -11 13 -60 24 -110 l21 -90 77 -56 c42 -31 157 -109 256 -174
187 -122 262 -176 453 -328 l113 -90 122 32 c604 159 1133 577 1390 1096 186
375 192 725 17 907 -25 26 -43 48 -40 48 4 0 28 -23 54 -50z m-123 -39 c-33
-37 -69 -74 -78 -82 -10 -8 15 23 56 69 41 45 76 82 78 82 3 0 -22 -31 -56
-69z m-821 -101 c8 -5 11 -10 5 -10 -5 0 -17 5 -25 10 -8 5 -10 10 -5 10 6 0
17 -5 25 -10z m50 -20 c8 -5 11 -10 5 -10 -5 0 -17 5 -25 10 -8 5 -10 10 -5
10 6 0 17 -5 25 -10z m593 -7 c-23 -2 -64 -2 -90 0 -26 2 -7 3 42 3 50 0 71
-1 48 -3z m-543 -13 c8 -5 11 -10 5 -10 -5 0 -17 5 -25 10 -8 5 -10 10 -5 10
6 0 17 -5 25 -10z m348 3 c-21 -2 -57 -2 -80 0 -24 2 -7 4 37 4 44 0 63 -2 43
-4z m-195 -10 c-24 -2 -62 -2 -85 0 -24 2 -5 4 42 4 47 0 66 -2 43 -4z m-1285
-120 c-16 -2 -40 -2 -55 0 -16 2 -3 4 27 4 30 0 43 -2 28 -4z m64 -17 c-3 -5
5 -7 16 -4 12 4 22 2 22 -4 0 -5 5 -6 10 -3 6 3 10 1 10 -5 0 -6 5 -8 10 -5 6
3 10 1 10 -5 0 -6 4 -9 9 -6 9 6 80 -66 82 -82 0 -4 2 -21 3 -39 2 -18 -4 -45
-15 -62 -20 -34 -97 -93 -110 -86 -4 3 -10 1 -14 -4 -3 -6 -12 -8 -20 -4 -8 3
-15 1 -15 -3 0 -5 -40 -9 -89 -9 -51 0 -87 4 -83 9 3 5 -5 7 -16 4 -12 -4 -22
-2 -22 4 0 6 -7 7 -16 4 -10 -4 -13 -2 -8 6 5 8 2 9 -10 5 -9 -4 -15 -3 -12 1
3 4 -4 14 -16 21 -16 10 -19 10 -13 -1 5 -7 -3 -2 -16 12 -13 13 -25 28 -25
32 -1 5 -2 13 -3 19 0 5 -4 8 -8 6 -5 -3 -8 17 -8 43 0 27 4 46 9 42 5 -3 6 2
3 12 -4 9 -3 16 1 14 4 -2 21 10 37 26 17 16 24 26 16 21 -9 -5 -12 -4 -7 3 4
6 14 8 23 5 11 -4 14 -3 9 5 -5 8 -1 10 10 5 12 -4 15 -3 10 5 -5 8 -1 10 10
5 11 -4 15 -2 11 4 -4 6 4 8 21 6 16 -3 22 -1 15 4 -6 4 33 8 87 8 56 0 96 -4
92 -9z"/>
<path d="M3620 1421 c-38 -12 -88 -39 -96 -52 -5 -8 -2 -9 7 -4 8 4 -4 -11
-26 -34 -40 -42 -58 -55 -34 -23 11 14 10 13 -9 -2 -23 -20 -31 -43 -10 -30 7
4 8 3 4 -5 -4 -6 -11 -9 -16 -6 -12 7 -56 -80 -86 -169 -30 -87 -60 -240 -74
-378 l-11 -107 31 -61 c17 -33 35 -58 40 -55 5 3 12 0 16 -6 4 -8 3 -9 -4 -5
-17 10 -15 -6 4 -32 8 -12 19 -20 24 -17 5 3 12 0 16 -6 4 -8 3 -9 -4 -5 -31
19 -5 -17 55 -77 60 -61 95 -86 77 -54 -4 7 -3 9 2 4 5 -5 9 -14 9 -19 0 -6 6
-13 14 -16 9 -3 11 0 6 8 -5 9 -4 11 4 6 6 -4 9 -11 6 -16 -6 -10 85 -60 107
-60 9 0 9 3 -2 10 -8 5 -10 10 -4 10 6 0 14 -3 18 -7 3 -4 12 -8 19 -9 7 -2
23 -6 37 -9 14 -4 33 -7 43 -7 9 1 17 -7 17 -16 0 -10 3 -13 8 -7 9 14 72 18
72 5 0 -5 12 -10 26 -10 15 0 23 4 19 10 -5 7 10 9 44 7 32 -3 48 -1 44 6 -4
6 5 8 26 4 23 -5 30 -3 25 5 -5 8 -2 9 11 4 11 -4 25 0 36 10 10 9 34 18 52
19 39 3 213 105 210 122 -1 6 5 17 15 25 15 12 16 11 3 -4 -31 -41 10 -14 68
45 80 79 121 159 121 238 0 72 -11 102 -80 224 -32 55 -83 146 -114 203 -32
56 -61 100 -66 97 -5 -3 -12 0 -16 6 -4 8 -3 9 4 5 18 -11 14 10 -5 25 -15 12
-16 12 -8 -1 5 -9 0 -8 -13 4 -25 21 -31 36 -7 16 29 -24 15 6 -18 38 -32 31
-55 43 -42 22 10 -16 -1 -11 -16 7 -12 14 -12 16 0 8 10 -5 12 -4 7 4 -11 17
-92 56 -156 75 -49 15 -182 31 -350 42 -30 1 -66 -1 -80 -5z m103 -8 c-13 -2
-35 -2 -50 0 -16 2 -5 4 22 4 28 0 40 -2 28 -4z m-86 -9 c-3 -3 -12 -4 -19 -1
-8 3 -5 6 6 6 11 1 17 -2 13 -5z m140 0 c-3 -3 -12 -4 -19 -1 -8 3 -5 6 6 6
11 1 17 -2 13 -5z m-178 -8 c-2 -2 -15 -9 -29 -15 -24 -11 -24 -11 -6 3 16 13
49 24 35 12z m288 -3 c-20 -2 -52 -2 -70 0 -17 2 0 4 38 4 39 0 53 -2 32 -4z
m96 -10 c-7 -2 -19 -2 -25 0 -7 3 -2 5 12 5 14 0 19 -2 13 -5z m54 -9 c-3 -3
-12 -4 -19 -1 -8 3 -5 6 6 6 11 1 17 -2 13 -5z m53 -14 c18 -12 2 -12 -25 0
-13 6 -15 9 -5 9 8 0 22 -4 30 -9z m60 -25 c17 -9 30 -18 30 -21 0 -4 -59 23
-69 32 -10 9 13 3 39 -11z m-732 -130 c-6 -14 -13 -23 -15 -21 -5 5 15 46 22
46 3 0 -1 -11 -7 -25z m922 -65 c6 -11 8 -20 6 -20 -3 0 -10 9 -16 20 -6 11
-8 20 -6 20 3 0 10 -9 16 -20z m-969 -51 c-5 -13 -10 -19 -10 -12 -1 15 10 45
15 40 3 -2 0 -15 -5 -28z m1004 -9 c9 -16 13 -30 11 -30 -3 0 -12 14 -21 30
-9 17 -13 30 -11 30 3 0 12 -13 21 -30z m-1028 -72 c-3 -8 -6 -5 -6 6 -1 11 2
17 5 13 3 -3 4 -12 1 -19z m1093 -48 c11 -22 18 -40 15 -40 -2 0 -14 18 -25
40 -11 22 -18 40 -15 40 2 0 14 -18 25 -40z m-1103 8 c-3 -8 -6 -5 -6 6 -1 11
2 17 5 13 3 -3 4 -12 1 -19z m-10 -60 c-3 -7 -5 -2 -5 12 0 14 2 19 5 13 2 -7
2 -19 0 -25z m-10 -50 c-3 -7 -5 -2 -5 12 0 14 2 19 5 13 2 -7 2 -19 0 -25z
m1173 12 c6 -11 8 -20 6 -20 -3 0 -10 9 -16 20 -6 11 -8 20 -6 20 3 0 10 -9
16 -20z m-1183 -87 c-3 -10 -5 -4 -5 12 0 17 2 24 5 18 2 -7 2 -21 0 -30z
m1223 17 c6 -11 8 -20 6 -20 -3 0 -10 9 -16 20 -6 11 -8 20 -6 20 3 0 10 -9
16 -20z m38 -145 l-1 -60 -7 70 c-4 39 -10 79 -14 90 -3 11 0 7 8 -10 9 -17
15 -55 14 -90z m-1271 23 c-2 -13 -4 -3 -4 22 0 25 2 35 4 23 2 -13 2 -33 0
-45z m17 -115 c9 -18 14 -33 12 -33 -6 0 -36 55 -36 66 0 11 5 3 24 -33z
m1227 -32 c-12 -22 -24 -42 -29 -45 -4 -3 3 19 17 47 14 29 27 50 29 46 2 -4
-6 -26 -17 -48z m-81 -106 c-24 -25 -46 -45 -49 -45 -3 0 15 20 39 45 24 25
46 45 49 45 3 0 -15 -20 -39 -45z m-960 -112 c0 -8 -9 0 -50 45 l-45 47 48
-45 c26 -24 47 -45 47 -47z m852 25 c-6 -7 -25 -22 -44 -32 -39 -23 -32 -13
14 20 38 26 45 29 30 12z m-102 -63 c0 -2 -10 -9 -22 -15 -22 -11 -22 -10 -4
4 21 17 26 19 26 11z m-604 -53 c-5 -4 -66 26 -66 33 0 3 16 -3 35 -12 19 -9
33 -18 31 -21z"/>
<path d="M3490 1345 c-20 -24 -6 -28 15 -5 10 11 13 20 8 20 -6 0 -16 -7 -23
-15z"/>
</g>
</svg>
