<?xml version="1.0" encoding="UTF-8" standalone="no"?>
<!-- Created with Inkscape (http://www.inkscape.org/) -->

<svg
   xmlns:dc="http://purl.org/dc/elements/1.1/"
   xmlns:cc="http://creativecommons.org/ns#"
   xmlns:rdf="http://www.w3.org/1999/02/22-rdf-syntax-ns#"
   xmlns:svg="http://www.w3.org/2000/svg"
   xmlns="http://www.w3.org/2000/svg"
   xmlns:sodipodi="http://sodipodi.sourceforge.net/DTD/sodipodi-0.dtd"
   xmlns:inkscape="http://www.inkscape.org/namespaces/inkscape"
   width="192.41623mm"
   height="204.05141mm"
   viewBox="0 0 681.78979 723.01679"
   id="svg2"
   version="1.1"
   inkscape:version="0.91 r13725"
   sodipodi:docname="GJlogo.svg">
  <title
     id="title4190">Game Jolt Logo</title>
  <defs
     id="defs4" />
  <sodipodi:namedview
     id="base"
     pagecolor="#ffffff"
     bordercolor="#666666"
     borderopacity="1.0"
     inkscape:pageopacity="0.0"
     inkscape:pageshadow="2"
     inkscape:zoom="0.98994949"
     inkscape:cx="162.62265"
     inkscape:cy="346.67842"
     inkscape:document-units="px"
     inkscape:current-layer="layer3"
     showgrid="false"
     fit-margin-top="0"
     fit-margin-left="0"
     fit-margin-right="0"
     fit-margin-bottom="0"
     inkscape:window-width="1920"
     inkscape:window-height="1138"
     inkscape:window-x="-8"
     inkscape:window-y="-8"
     inkscape:window-maximized="1" />
  <metadata
     id="metadata7">
    <rdf:RDF>
      <cc:Work
         rdf:about="">
        <dc:format>image/svg+xml</dc:format>
        <dc:type
           rdf:resource="http://purl.org/dc/dcmitype/StillImage" />
        <dc:title>Game Jolt Logo</dc:title>
      </cc:Work>
    </rdf:RDF>
  </metadata>
  <g
     inkscape:groupmode="layer"
     id="layer3"
     inkscape:label="Calque 3"
     transform="translate(-29.326028,-75.796829)">
    <path
       style="fill:#ffffff;fill-opacity:1;fill-rule:evenodd;stroke:none;stroke-width:1px;stroke-linecap:butt;stroke-linejoin:miter;stroke-opacity:1"
       d="m 201.00604,75.796829 0,84.300471 -43.69214,0 0,85.53307 -42.45483,0 0,85.53304 -42.45957,0 0,85.5283 -43.073472,0 0,83.68659 255.980512,0 0,87.37477 -41.84567,0 0,84.30049 -43.0735,0 0,84.91915 41.84567,0 0,-42.45958 43.0735,0 0,-43.07347 41.84089,0 0,-44.30129 42.45958,0 0,-40.6131 43.68739,0 0,-43.0735 41.227,0 0,-43.07347 44.91997,0 0,-40.6131 41.8409,0 0,-45.53387 42.45959,0 0,-40.61309 41.227,0 0,-43.6874 43.6874,0 0,-42.45957 -127.98789,0 0,-43.07348 42.45957,0 0,-42.45482 42.45482,0 0,-43.07349 42.45957,0 0,-43.07348 43.0735,0 0,-39.999171 -510.10979,0 z m -0.61867,681.175881 -41.8409,0 0,41.84092 41.8409,0 0,-41.84092 z m -0.6139,-426.42795 43.07349,0 0,41.84565 43.07348,0 0,-41.84565 41.84089,0 0,41.84565 42.4596,0 0,-41.84565 43.68737,0 0,41.84565 43.0735,0 0,84.91439 -44.91997,0 0,43.0735 -41.8409,0 0,-84.91439 -42.4596,0 0,-43.0735 -41.84089,0 0,43.6874 -43.07348,0 0,-43.6874 -43.07349,0 0,42.45482 -43.07347,0 0,-42.45482 43.07347,0 0,-41.84565 z m 214.13483,41.84565 -43.68737,0 0,42.45482 43.68737,0 0,-42.45482 z"
       id="path4185"
       inkscape:connector-curvature="0" />
  </g>
</svg>
