<?xml version="1.0" encoding="utf-8"?>
<!-- Generator: Adobe Illustrator 18.1.1, SVG Export Plug-In . SVG Version: 6.00 Build 0)  -->
<!DOCTYPE svg PUBLIC "-//W3C//DTD SVG 1.1 Basic//EN" "http://www.w3.org/Graphics/SVG/1.1/DTD/svg11-basic.dtd">
<svg version="1.1" baseProfile="basic" id="Í_xBC__xB2_ã_x5F_1"
	 xmlns="http://www.w3.org/2000/svg" xmlns:xlink="http://www.w3.org/1999/xlink" x="0px" y="0px" width="500" height="500" viewBox="40 0 492.2 483.9"
	 xml:space="preserve">
<g>
	<path fill="#000000" d="M521.8,212.8v-61.4c0-73.2-59.5-132.7-132.7-132.7c-35.7,0-68.2,14.2-92.1,37.3
		c-23.9-23-56.4-37.3-92.1-37.3c-73.2,0-132.7,59.6-132.7,132.7v184.2c0,73.2,59.5,132.7,132.7,132.7h184.2
		c73.2,0,132.7-59.5,132.7-132.7v-89.2H256.4v81.2h184.2v8c0,28.4-23.1,51.5-51.5,51.5H204.9c-28.4,0-51.5-23.1-51.5-51.5V151.4
		c0-28.4,23.1-51.5,51.5-51.5c28.4,0,51.5,23.1,51.5,51.5v61.4h81.2v-61.4c0-28.4,23.1-51.5,51.5-51.5c28.4,0,51.5,23.1,51.5,51.5
		v61.4H521.8z"/>
</g>
</svg>
