<?xml version="1.0" encoding="UTF-8"?>
<!-- Generator: Adobe Illustrator 16.0.3, SVG Export Plug-In . SVG Version: 6.00 Build 0)  -->
<!DOCTYPE svg PUBLIC "-//W3C//DTD SVG 1.1//EN" "http://www.w3.org/Graphics/SVG/1.1/DTD/svg11.dtd">
<svg version="1.1" id="Layer_1" xmlns="http://www.w3.org/2000/svg" xmlns:xlink="http://www.w3.org/1999/xlink" x="0px" y="0px" width="500px" height="500px" viewBox="0 0 120 120" enable-background="new 0 0 120 120" xml:space="preserve">
<g>
	<path fill="#000000" d="M39.539,75.435V48.536L27.976,69.163h-2.499L13.865,48.536v26.899h-4.41V40.647h4.655l12.592,22.587   l12.641-22.587h4.605v34.787H39.539z"/>
	<path fill="#000000" d="M53.163,40.647l11.515,29.251l11.465-29.251h4.654L66.588,75.435h-3.821L48.509,40.647H53.163z"/>
	<path fill="#000000" d="M99.761,40.452c6.174,0,10.779,3.136,12.935,7.594l-3.479,2.254c-2.058-4.41-6.124-5.88-9.652-5.88   c-7.741,0-11.905,7.007-11.905,13.572c0,7.251,5.145,13.768,12.053,13.768c3.626,0,7.938-1.813,9.946-6.124l3.675,2.009   c-2.205,5.193-8.428,8.084-13.817,8.084c-9.554,0-16.315-9.113-16.315-17.933C83.2,49.369,89.275,40.452,99.761,40.452z"/>
</g>
</svg>