<?xml version="1.0" encoding="UTF-8"?>
<!-- Generator: Adobe Illustrator 16.0.3, SVG Export Plug-In . SVG Version: 6.00 Build 0)  -->
<!DOCTYPE svg PUBLIC "-//W3C//DTD SVG 1.1//EN" "http://www.w3.org/Graphics/SVG/1.1/DTD/svg11.dtd">
<svg version="1.1" id="Layer_1" xmlns="http://www.w3.org/2000/svg" xmlns:xlink="http://www.w3.org/1999/xlink" x="0px" y="0px" width="500px" height="500px" viewBox="0 0 120 120" enable-background="new 0 0 120 120" xml:space="preserve">
<g>
	<path fill="#000000" d="M25.663,61.229l-1.303,1.303c-0.174,0.175-0.374,0.261-0.599,0.261c-0.226,0-0.426-0.086-0.6-0.261   l-12.14-12.14c-0.173-0.174-0.261-0.375-0.261-0.6s0.088-0.426,0.261-0.599l12.14-12.141c0.174-0.173,0.374-0.26,0.6-0.26   c0.226,0,0.426,0.087,0.6,0.26l1.302,1.303c0.175,0.174,0.261,0.373,0.261,0.599s-0.086,0.426-0.261,0.6L15.425,49.792   l10.238,10.239c0.174,0.173,0.26,0.373,0.26,0.598C25.923,60.856,25.837,61.055,25.663,61.229z M108.977,70.808l-12.14,12.14   c-0.174,0.174-0.372,0.261-0.6,0.261c-0.227,0-0.425-0.087-0.6-0.261l-1.303-1.303c-0.174-0.174-0.26-0.373-0.26-0.6   c0-0.225,0.086-0.425,0.26-0.598l10.24-10.239L94.336,59.969c-0.173-0.173-0.26-0.374-0.26-0.6c0-0.225,0.087-0.425,0.26-0.599   l1.304-1.303c0.173-0.173,0.373-0.26,0.598-0.26c0.228,0,0.427,0.087,0.6,0.26l12.142,12.14c0.173,0.173,0.261,0.374,0.261,0.6   C109.237,70.434,109.151,70.635,108.977,70.808z"/>
	<g>
		<path fill="#000000" d="M33.724,50.906l5.299,7.904l5.269-7.904h4.461l-7.575,10.777l7.335,10.479h-4.461l-5.029-7.604    l-5.06,7.604h-4.491l7.335-10.479l-7.574-10.777H33.724z"/>
		<path fill="#000000" d="M68.186,72.162V58.091l-5.479,10.478h-2.245l-5.479-10.478v14.071h-4.131V50.906h4.431l6.287,12.095    l6.348-12.095h4.4v21.256H68.186z"/>
		<path fill="#000000" d="M76.751,72.162V50.906h4.131V68.54H91.72v3.622H76.751z"/>
	</g>
</g>
</svg>