<?xml version="1.0" standalone="no"?>
<!DOCTYPE svg PUBLIC "-//W3C//DTD SVG 20010904//EN"
 "http://www.w3.org/TR/2001/REC-SVG-20010904/DTD/svg10.dtd">
<svg version="1.0" xmlns="http://www.w3.org/2000/svg"
 width="750.000000pt" height="750.000000pt" viewBox="0 0 750.000000 750.000000"
 preserveAspectRatio="xMidYMid meet">
<metadata>
Created by potrace 1.11, written by Peter Selinger 2001-2013
</metadata>
<g transform="translate(0.000000,750.000000) scale(0.100000,-0.100000)"
fill="#000000" stroke="none">
<path d="M3335 7335 c-75 -21 -182 -77 -271 -144 -88 -66 -249 -220 -329 -316
-27 -33 -61 -72 -75 -87 l-25 -27 -80 76 c-157 148 -318 266 -495 361 -77 42
-298 132 -322 132 -7 0 -20 -9 -28 -21 -8 -11 -59 -77 -113 -147 -218 -279
-304 -440 -360 -672 -41 -171 -49 -248 -50 -470 -1 -166 7 -361 16 -405 3 -11
8 -51 11 -90 4 -38 9 -81 11 -95 2 -14 7 -45 10 -70 3 -25 7 -56 10 -70 54
-298 54 -286 -2 -346 -27 -28 -71 -77 -100 -110 -81 -93 -85 -97 -148 -169
-33 -38 -69 -79 -80 -91 -11 -12 -47 -53 -80 -90 -60 -68 -92 -105 -215 -244
-134 -152 -164 -186 -204 -230 -22 -25 -66 -75 -96 -110 -30 -35 -60 -68 -65
-74 -65 -68 -158 -187 -185 -237 -64 -120 -83 -258 -55 -393 30 -140 102 -249
249 -370 53 -44 96 -84 96 -90 0 -38 165 -326 241 -420 115 -142 233 -262 354
-360 39 -31 77 -62 85 -69 17 -14 128 -87 210 -139 104 -65 386 -195 463 -214
17 -4 39 -23 57 -48 16 -22 40 -54 54 -71 14 -16 29 -34 34 -40 94 -116 406
-439 497 -515 488 -409 880 -609 1320 -673 11 -1 26 -6 33 -10 6 -5 12 -6 12
-3 0 2 24 -2 53 -10 79 -21 247 -13 317 15 61 24 221 68 272 75 165 21 313 76
359 135 47 59 139 150 209 206 81 64 237 217 310 304 25 29 54 63 64 75 27 30
176 231 220 296 37 54 98 128 187 225 42 45 58 64 116 132 11 12 66 46 123 76
179 92 295 166 425 271 88 71 238 217 289 282 12 14 31 38 44 53 41 48 124
172 176 265 44 77 113 226 121 261 1 5 5 17 8 25 3 8 13 42 22 75 9 33 24 67
33 76 10 9 44 47 77 84 33 37 65 73 70 79 221 239 274 336 280 511 4 104 -5
163 -39 246 -45 112 -96 171 -296 345 -25 21 -47 41 -50 44 -14 14 -113 102
-169 150 -35 30 -87 76 -115 101 -28 25 -69 61 -91 80 -22 19 -47 41 -55 49
-8 8 -49 44 -90 80 -41 35 -77 67 -80 71 -3 3 -42 38 -87 77 -45 38 -96 83
-113 99 l-30 28 21 95 c11 52 23 104 25 115 2 11 6 31 9 45 8 40 24 132 30
175 3 22 9 63 15 90 5 28 12 75 15 105 3 30 9 80 12 110 9 73 9 484 1 536 -45
287 -110 454 -260 676 -225 330 -209 309 -242 302 -17 -3 -37 -11 -45 -18 -8
-6 -16 -10 -18 -8 -2 1 -17 -5 -33 -13 -16 -8 -32 -15 -35 -15 -10 2 -229
-111 -246 -126 -8 -8 -19 -14 -24 -14 -4 0 -23 -11 -41 -25 -18 -14 -35 -25
-38 -25 -14 0 -237 -166 -316 -235 -96 -83 -224 -210 -332 -329 l-45 -49 -59
64 c-125 135 -336 337 -419 400 -16 13 -32 26 -35 29 -34 36 -261 196 -360
253 -84 48 -205 105 -282 131 -86 29 -163 33 -243 11z"/>
</g>
</svg>
